Coordinates
version=1
nRows=17
nColumns=40
inDegrees=yes

Units are S.I. units (second, meters, Newtons, ...)
If the header above contains a line with 'inDegrees', this indicates whether rotational values are in degrees (yes) or radians (no).

endheader
time	pelvis_tilt	pelvis_list	pelvis_rotation	pelvis_tx	pelvis_ty	pelvis_tz	hip_flexion_r	hip_adduction_r	hip_rotation_r	knee_angle_r	knee_angle_r_beta	ankle_angle_r	subtalar_angle_r	mtp_angle_r	hip_flexion_l	hip_adduction_l	hip_rotation_l	knee_angle_l	knee_angle_l_beta	ankle_angle_l	subtalar_angle_l	mtp_angle_l	lumbar_extension	lumbar_bending	lumbar_rotation	arm_flex_r	arm_add_r	arm_rot_r	elbow_flex_r	pro_sup_r	wrist_flex_r	wrist_dev_r	arm_flex_l	arm_add_l	arm_rot_l	elbow_flex_l	pro_sup_l	wrist_flex_l	wrist_dev_l
      8.95500000	     30.22076324	     -1.05376653	   -177.67085321	      0.36910292	      0.88528250	     -0.55784015	     70.73104980	    -14.82610991	     -4.58456841	     46.59399777	      0.81321867	      6.34371838	      0.00000000	      0.00000000	     69.43631163	     -3.08306698	     -1.63602037	     46.87194385	      0.81806975	      6.27830630	      0.00000000	      0.00000000	    -33.48033543	      3.72955818	     -1.37102006	     47.70789456	    -15.12071509	     27.55536045	     21.11564555	     89.10653373	      0.00000000	      0.00000000	     53.26765466	    -12.86718479	     58.90748679	     21.09939820	     85.96896291	      0.00000000	      0.00000000
      8.96000000	     30.31205994	     -1.14227569	   -177.69333853	      0.36887497	      0.88637036	     -0.55761575	     70.61801047	    -14.78669368	     -4.45875392	     46.20461180	      0.80642261	      6.20729767	      0.00000000	      0.00000000	     69.30684489	     -3.00431049	     -1.66852405	     46.53975230	      0.81227191	      6.11543265	      0.00000000	      0.00000000	    -33.12162207	      3.63259481	     -1.43555057	     47.51331625	    -15.10555219	     27.63816516	     21.07821130	     89.10644575	      0.00000000	      0.00000000	     53.03795912	    -12.85988299	     58.89862711	     21.07877357	     85.96830460	      0.00000000	      0.00000000
      8.96500000	     30.27188297	     -1.16586612	   -177.71119689	      0.36833550	      0.88724269	     -0.55744812	     70.47614209	    -14.77190284	     -4.45072374	     46.14459247	      0.80537507	      6.16695458	      0.00000000	      0.00000000	     69.16986562	     -2.99267643	     -1.67846619	     46.48591747	      0.81133232	      6.07125737	      0.00000000	      0.00000000	    -32.85464219	      3.59656313	     -1.45754907	     47.29921377	    -15.08012349	     27.68145061	     21.00267753	     89.10830792	      0.00000000	      0.00000000	     52.82806771	    -12.85718448	     58.92910083	     21.04930259	     85.97066725	      0.00000000	      0.00000000
      8.97000000	     30.38816932	     -1.31782841	   -177.73142234	      0.36809763	      0.88841523	     -0.55702325	     70.36447461	    -14.80794812	     -4.37679832	     45.63801534	      0.79653363	      6.01250577	      0.00000000	      0.00000000	     68.97922056	     -2.89233907	     -1.86668197	     45.97745597	      0.80245799	      5.91403601	      0.00000000	      0.00000000	    -32.47272897	      3.45438215	     -1.54313059	     47.14811120	    -15.06130225	     27.81410657	     20.88871718	     89.10349672	      0.00000000	      0.00000000	     52.60656304	    -12.81329423	     58.95005010	     21.01893958	     85.97066105	      0.00000000	      0.00000000
      8.97500000	     30.12935785	     -2.05194099	   -177.93991575	      0.36737738	      0.89015230	     -0.55704232	     70.17542595	    -14.87218458	     -3.36612510	     45.45404046	      0.79332266	      5.81849924	      0.00000000	      0.00000000	     68.22493738	     -2.61779720	     -2.43418540	     45.41791209	      0.79269211	      5.77650923	      0.00000000	      0.00000000	    -32.51490755	      2.65091122	     -1.82682690	     47.08334559	    -14.92753844	     28.22122234	     20.71476789	     89.09834206	      0.00000000	      0.00000000	     52.46505632	    -12.85691866	     58.85460501	     20.91398949	     85.95415216	      0.00000000	      0.00000000
      8.98000000	     30.06558832	     -2.04197225	   -177.94899379	      0.36680520	      0.89083507	     -0.55689400	     70.03862982	    -14.86411830	     -3.37189992	     45.42971365	      0.79289808	      5.77909498	      0.00000000	      0.00000000	     68.07403615	     -2.63250072	     -2.46276056	     45.37054774	      0.79186544	      5.75519616	      0.00000000	      0.00000000	    -32.23655736	      2.64497475	     -1.84089258	     46.83987973	    -14.89513834	     28.25531339	     20.64052439	     89.10363588	      0.00000000	      0.00000000	     52.23120114	    -12.84709912	     58.89433896	     20.88846368	     85.95852543	      0.00000000	      0.00000000
      8.98500000	     30.05491095	     -2.03344905	   -177.93111586	      0.36626838	      0.89154930	     -0.55676725	     69.89300346	    -14.87209904	     -3.43338080	     45.26554742	      0.79003284	      5.72743241	      0.00000000	      0.00000000	     67.87619132	     -2.64208368	     -2.60171044	     45.10484461	      0.78722805	      5.77516349	      0.00000000	      0.00000000	    -31.89886595	      2.64889310	     -1.86563122	     46.58456175	    -14.87000634	     28.30156369	     20.56898647	     89.09679493	      0.00000000	      0.00000000	     51.91645402	    -12.82195047	     58.95969306	     20.86678718	     85.97105806	      0.00000000	      0.00000000
      8.99000000	     29.96792473	     -2.01495741	   -177.93050641	      0.36567761	      0.89214343	     -0.55680526	     69.73328960	    -14.85363427	     -3.42105134	     45.24668902	      0.78970370	      5.68574768	      0.00000000	      0.00000000	     67.70011456	     -2.65050074	     -2.59946719	     45.05517824	      0.78636121	      5.75311446	      0.00000000	      0.00000000	    -31.60936745	      2.64039547	     -1.88330899	     46.28873441	    -14.83167863	     28.34204501	     20.49064757	     89.10437014	      0.00000000	      0.00000000	     51.63713445	    -12.83000347	     59.00881393	     20.82626657	     85.97696403	      0.00000000	      0.00000000
      8.99500000	     29.88851989	     -1.98351920	   -177.93242503	      0.36510892	      0.89273420	     -0.55682797	     69.57125472	    -14.83115353	     -3.43171244	     45.21221896	      0.78910208	      5.64745930	      0.00000000	      0.00000000	     67.52220779	     -2.67269936	     -2.61848537	     44.96317838	      0.78475550	      5.74295320	      0.00000000	      0.00000000	    -31.30151162	      2.64832722	     -1.90436154	     45.99389624	    -14.79540513	     28.37842887	     20.43139093	     89.10608654	      0.00000000	      0.00000000	     51.33926741	    -12.83771407	     59.05909171	     20.79079903	     85.98290486	      0.00000000	      0.00000000
      9.00000000	     29.89315396	     -1.91034583	   -177.93760572	      0.36471254	      0.89361006	     -0.55689638	     69.38031437	    -14.78148645	     -3.57472087	     44.95827486	      0.78466992	      5.59301016	      0.00000000	      0.00000000	     67.28374717	     -2.70724727	     -2.62531740	     44.53608181	      0.77730126	      5.78933068	      0.00000000	      0.00000000	    -30.94635809	      2.70455994	     -1.88499893	     45.64551698	    -14.83078314	     28.35691509	     20.55858723	     89.09678077	      0.00000000	      0.00000000	     51.05069495	    -12.88507778	     59.08339070	     20.84008070	     85.99023457	      0.00000000	      0.00000000
      9.00500000	     29.79347935	     -1.88443406	   -177.94516389	      0.36418318	      0.89415705	     -0.55702055	     69.19921836	    -14.75395303	     -3.57688245	     44.93705519	      0.78429957	      5.55417012	      0.00000000	      0.00000000	     67.11394709	     -2.72267891	     -2.59586553	     44.50028325	      0.77667646	      5.76366611	      0.00000000	      0.00000000	    -30.64212149	      2.70225777	     -1.90619538	     45.33021889	    -14.80050654	     28.38243289	     20.50675421	     89.10552779	      0.00000000	      0.00000000	     50.74655158	    -12.90964683	     59.12946265	     20.80009409	     85.99613742	      0.00000000	      0.00000000
      9.01000000	     29.80300008	     -1.77063773	   -177.95783185	      0.36380895	      0.89492229	     -0.55708539	     68.97770744	    -14.67068562	     -3.72848310	     44.64486133	      0.77919982	      5.53852764	      0.00000000	      0.00000000	     66.94411642	     -2.78155325	     -2.51578281	     44.18509998	      0.77117547	      5.80424199	      0.00000000	      0.00000000	    -30.25649862	      2.79761074	     -1.90451868	     44.94753305	    -14.82839328	     28.28645272	     20.72695051	     89.09916567	      0.00000000	      0.00000000	     50.40584555	    -12.98685215	     59.12333280	     20.88112364	     86.00517896	      0.00000000	      0.00000000
      9.01500000	     29.70273503	     -1.75434460	   -177.97766692	      0.36327542	      0.89548479	     -0.55709950	     68.79645485	    -14.64661149	     -3.72787599	     44.61676271	      0.77870941	      5.50519498	      0.00000000	      0.00000000	     66.78238439	     -2.79124992	     -2.47471393	     44.17031081	      0.77091736	      5.77158469	      0.00000000	      0.00000000	    -29.93979160	      2.79905068	     -1.92165974	     44.63751393	    -14.80426776	     28.30280312	     20.67603207	     89.10754021	      0.00000000	      0.00000000	     50.09462776	    -13.01927100	     59.16468554	     20.84143668	     86.01121018	      0.00000000	      0.00000000
      9.02000000	     29.63510914	     -1.74419451	   -178.01851743	      0.36274792	      0.89607574	     -0.55698735	     68.61818434	    -14.62075912	     -3.77853067	     44.51971649	      0.77701563	      5.48265355	      0.00000000	      0.00000000	     66.62447349	     -2.80708456	     -2.45294680	     44.11193819	      0.76989856	      5.75743647	      0.00000000	      0.00000000	    -29.58305362	      2.79907330	     -1.95610284	     44.31999496	    -14.76315254	     28.30624649	     20.66340468	     89.10775408	      0.00000000	      0.00000000	     49.75813205	    -13.04412411	     59.20105823	     20.82081757	     86.01702926	      0.00000000	      0.00000000
      9.02500000	     29.77279995	     -1.61406043	   -178.02442643	      0.36257175	      0.89669248	     -0.55685057	     68.41291525	    -14.47914398	     -3.87117744	     43.94868336	      0.76704923	      5.54838693	      0.00000000	      0.00000000	     66.58673682	     -2.81739191	     -2.24604397	     43.75080391	      0.76359558	      5.81420241	      0.00000000	      0.00000000	    -29.04533784	      2.92195281	     -1.92269830	     43.86968120	    -14.84494118	     28.04822156	     20.97578611	     89.10083147	      0.00000000	      0.00000000	     49.36733377	    -13.15786150	     59.07531201	     21.05072078	     86.02243825	      0.00000000	      0.00000000
      9.03000000	     29.67094549	     -1.60873054	   -178.05075147	      0.36190176	      0.89720993	     -0.55680798	     68.23508681	    -14.45078487	     -3.87057499	     43.91086974	      0.76638925	      5.51834349	      0.00000000	      0.00000000	     66.42041227	     -2.81996167	     -2.20092299	     43.75087502	      0.76359682	      5.78011750	      0.00000000	      0.00000000	    -28.70292773	      2.90676011	     -1.94186968	     43.54768322	    -14.79371719	     28.07089198	     20.90832085	     89.10973612	      0.00000000	      0.00000000	     49.00814607	    -13.16667869	     59.12204958	     21.00946006	     86.02995031	      0.00000000	      0.00000000
      9.03500000	     29.58979891	     -1.61348195	   -178.07782348	      0.36120432	      0.89773068	     -0.55679756	     68.05682848	    -14.42403360	     -3.89114366	     43.84371902	      0.76521725	      5.50289358	      0.00000000	      0.00000000	     66.26108902	     -2.81730411	     -2.16637504	     43.72447884	      0.76313612	      5.76662709	      0.00000000	      0.00000000	    -28.33154647	      2.87357715	     -1.95825619	     43.22619283	    -14.74564034	     28.09852154	     20.83817227	     89.11011756	      0.00000000	      0.00000000	     48.68974305	    -13.17712185	     59.15915635	     20.97833505	     86.03604592	      0.00000000	      0.00000000
